<?xml version="1.0" encoding="utf-8"?>
<!-- Generator: Adobe Illustrator 21.0.0, SVG Export Plug-In . SVG Version: 6.00 Build 0)  -->
<svg version="1.1" id="Layer_1" xmlns="http://www.w3.org/2000/svg" xmlns:xlink="http://www.w3.org/1999/xlink" x="0px" y="0px"
	 viewBox="0 0 1200 1000" style="enable-background:new 0 0 1200 1000;" xml:space="preserve">
<style type="text/css">
	.st0{fill:#14F195;}
	.st1{fill:#999999;}
</style>
<g>
	<g>
		<path class="st0" d="M422.9,546.5c-7.5-3.9-13.3-9.5-17.5-16.5c-4.1-7.1-6.2-15.3-6.2-24.6v-42.8c0-9.3,2.1-17.5,6.2-24.7
			c4.1-7.1,10-12.6,17.5-16.5c7.5-3.9,16.2-5.8,26-5.8c9.7,0,18.3,1.9,25.7,5.7c7.5,3.8,13.2,9,17.4,15.6c4.1,6.6,6.2,13.9,6.2,21.9
			v1.3c0,0.6-0.2,1.2-0.7,1.6c-0.4,0.4-1,0.7-1.6,0.7h-22.4c-0.6,0-1.2-0.2-1.6-0.7c-0.4-0.4-0.7-1-0.7-1.6v-0.6
			c0-5.9-2-10.8-6.1-14.8c-4.1-4-9.5-6-16.2-6c-6.9,0-12.4,2.1-16.5,6.4c-4.1,4.3-6.2,9.8-6.2,16.7v44.3c0,6.9,2.2,12.5,6.7,16.7
			c4.5,4.3,10.1,6.4,17,6.4c6.6,0,11.9-1.7,15.9-5.3c3.9-3.5,5.9-8.4,5.9-14.6v-8.6c0-0.6-0.3-1-1-1h-21.4c-0.6,0-1.2-0.2-1.6-0.7
			c-0.4-0.4-0.7-1-0.7-1.6V480c0-0.6,0.2-1.2,0.7-1.6c0.4-0.4,1-0.7,1.6-0.7h46.6c0.6,0,1.2,0.2,1.6,0.7c0.4,0.4,0.7,1,0.7,1.6v25.2
			c0,9.7-2,18.1-6.1,25.2c-4.1,7.1-9.8,12.6-17.3,16.3c-7.5,3.8-16.1,5.6-25.9,5.6C439,552.5,430.4,550.5,422.9,546.5z"/>
		<path class="st0" d="M520.8,437.3c-2.9-2.9-4.3-6.5-4.3-10.8c0-4.5,1.4-8.1,4.2-10.9c2.8-2.8,6.4-4.2,10.9-4.2
			c4.5,0,8.1,1.4,10.9,4.2c2.8,2.8,4.2,6.4,4.2,10.9c0,4.3-1.4,7.9-4.3,10.8c-2.9,2.9-6.5,4.3-10.8,4.3
			C527.3,441.6,523.7,440.2,520.8,437.3z M518.5,550.3c-0.4-0.4-0.7-1-0.7-1.6v-93.8c0-0.6,0.2-1.2,0.7-1.6c0.4-0.4,1-0.7,1.6-0.7
			h22.4c0.6,0,1.2,0.2,1.6,0.7c0.4,0.4,0.7,1,0.7,1.6v93.8c0,0.6-0.2,1.2-0.7,1.6c-0.4,0.4-1,0.7-1.6,0.7h-22.4
			C519.5,550.9,519,550.7,518.5,550.3z"/>
		<path class="st0" d="M626.5,453.4c0.4-0.4,1-0.7,1.6-0.7h22.4c0.6,0,1.2,0.2,1.6,0.7c0.4,0.4,0.7,1,0.7,1.6v87.1
			c0,16.7-4.8,28.6-14.4,35.7c-9.6,7.1-22,10.7-37.2,10.7c-4.5,0-9.4-0.3-14.9-1c-1.3-0.1-1.9-1-1.9-2.5l0.8-19.7
			c0-1.7,0.9-2.4,2.7-2.1c4.6,0.8,8.8,1.1,12.6,1.1c8.2,0,14.4-1.8,18.8-5.4c4.4-3.6,6.6-9.3,6.6-17.2c0-0.4-0.1-0.6-0.4-0.7
			c-0.3-0.1-0.5,0-0.8,0.3c-4.8,5.2-11.9,7.8-21.2,7.8c-8.3,0-15.9-2-22.8-6c-6.9-4-11.9-10.5-14.8-19.4c-1.9-5.9-2.9-13.4-2.9-22.7
			c0-9.9,1.1-18,3.4-24.3c2.7-7.8,7.2-14,13.6-18.7c6.4-4.7,13.8-7.1,22.2-7.1c9.8,0,17.3,2.9,22.6,8.8c0.3,0.3,0.5,0.4,0.8,0.3
			c0.3-0.1,0.4-0.3,0.4-0.7V455C625.8,454.4,626,453.8,626.5,453.4z M625.8,501.1c0-3.9-0.1-7-0.4-9.2c-0.3-2.2-0.7-4.2-1.3-6.1
			c-1.1-3.4-3.1-6.2-5.7-8.3c-2.7-2.1-6-3.2-9.9-3.2c-3.8,0-7.1,1.1-9.7,3.2s-4.7,4.9-5.9,8.3c-1.8,3.8-2.7,9-2.7,15.5
			c0,7.1,0.8,12.2,2.3,15.3c1.1,3.4,3.2,6.2,6,8.3c2.9,2.1,6.3,3.2,10.2,3.2c4.1,0,7.5-1.1,10.1-3.2c2.7-2.1,4.5-4.8,5.5-8.1
			C625.3,512.9,625.8,507.7,625.8,501.1z"/>
		<path class="st0" d="M733.4,455.5c6.5,2.9,11.6,6.8,15.2,11.8c3.6,5,5.4,10.5,5.4,16.6v64.8c0,0.6-0.2,1.2-0.7,1.6
			c-0.4,0.4-1,0.7-1.6,0.7h-22.4c-0.6,0-1.2-0.2-1.6-0.7c-0.4-0.4-0.7-1-0.7-1.6v-6.3c0-0.4-0.1-0.6-0.4-0.8c-0.3-0.1-0.5,0-0.8,0.4
			c-5.4,7-14,10.5-25.8,10.5c-9.9,0-18-2.4-24.1-7.3c-6.1-4.8-9.2-12-9.2-21.4c0-9.8,3.4-17.4,10.3-22.8c6.9-5.4,16.7-8.1,29.4-8.1
			h19.5c0.6,0,1-0.3,1-1v-4.2c0-4.2-1.3-7.5-3.8-9.8c-2.6-2.4-6.4-3.5-11.5-3.5c-4,0-7.2,0.7-9.8,2.1c-2.6,1.4-4.3,3.4-5.1,5.9
			c-0.4,1.4-1.2,2-2.5,1.9l-23.1-3.1c-1.5-0.3-2.2-0.8-2.1-1.7c0.5-5.4,2.6-10.2,6.4-14.5c3.8-4.3,8.7-7.7,14.9-10.1
			c6.2-2.4,13.1-3.6,20.7-3.6C719.5,451.2,726.9,452.6,733.4,455.5z M721.4,528c3.8-2.9,5.7-6.7,5.7-11.3v-6.9c0-0.6-0.3-1-1-1
			h-13.8c-5.7,0-10.2,1.1-13.5,3.2c-3.2,2.2-4.9,5.2-4.9,9.2c0,3.4,1.2,6.1,3.6,8.1c2.4,2,5.7,3,9.7,3
			C712.9,532.4,717.5,530.9,721.4,528z"/>
		<path class="st1" d="M781,549V419.1c0-1.3,0.6-1.9,1.9-1.9H828c12.6,0,22.6,3.3,30.1,9.9c7.5,6.6,11.2,15.6,11.2,26.9v60
			c0,11.3-3.7,20.3-11.2,26.9c-7.5,6.6-17.5,9.9-30.1,9.9h-45.1C781.6,550.9,781,550.3,781,549z M795.3,539.1h33.3
			c8.3,0,14.9-2.4,19.8-7.3c4.9-4.8,7.4-11.3,7.4-19.5V456c0-8.3-2.4-14.8-7.3-19.7c-4.8-4.8-11.5-7.3-19.9-7.3h-33.3
			c-0.5,0-0.8,0.3-0.8,0.8v108.5C794.6,538.8,794.8,539.1,795.3,539.1z"/>
		<path class="st1" d="M971.7,549.4l-7.6-24.1c-0.1-0.4-0.4-0.6-0.8-0.6h-57.1c-0.4,0-0.6,0.2-0.8,0.6l-7.6,24.1
			c-0.4,1-1.1,1.5-2.3,1.5h-10.3c-1.4,0-1.9-0.7-1.5-2.1l42.2-130.1c0.4-1,1.1-1.5,2.3-1.5h13c1.1,0,1.9,0.5,2.3,1.5l42.4,130.1
			l0.2,0.8c0,0.9-0.6,1.3-1.7,1.3H974C972.8,550.9,972.1,550.4,971.7,549.4z M909.3,513.4c0.2,0.2,0.4,0.3,0.7,0.3h49.3
			c0.3,0,0.5-0.1,0.7-0.3c0.2-0.2,0.2-0.4,0.1-0.7l-24.8-78c-0.1-0.3-0.3-0.4-0.6-0.4c-0.3,0-0.4,0.1-0.6,0.4l-24.8,78
			C909.1,513,909.1,513.2,909.3,513.4z"/>
		<path class="st1" d="M1025.8,546.9c-6.9-3.7-12.2-8.9-16-15.6c-3.8-6.7-5.6-14.4-5.6-23.2V460c0-8.8,1.9-16.5,5.6-23.2
			c3.8-6.7,9.1-11.9,16-15.6c6.9-3.7,14.8-5.5,23.9-5.5c9,0,17,1.8,24,5.5c6.9,3.7,12.3,8.9,16.1,15.6c3.8,6.7,5.6,14.4,5.6,23.2
			v48.2c0,8.8-1.9,16.5-5.6,23.2c-3.8,6.7-9.1,11.9-16.1,15.6c-6.9,3.7-14.9,5.5-24,5.5C1040.6,552.5,1032.7,550.6,1025.8,546.9z
			 M1073,532c5.9-5.9,8.8-13.6,8.8-23.3v-48.9c0-9.7-2.9-17.5-8.8-23.4c-5.9-5.9-13.6-8.9-23.3-8.9c-9.6,0-17.3,3-23.1,8.9
			c-5.9,5.9-8.8,13.7-8.8,23.4v48.9c0,9.7,2.9,17.5,8.8,23.3c5.9,5.9,13.6,8.8,23.1,8.8C1059.4,540.8,1067.1,537.9,1073,532z"/>
	</g>
	<g>
		<path class="st0" d="M257.5,481l2.9-3.1l-42.1-0.5l13.8-23.9l6.1-10.5l11-18.6l16.5-27.9c-7-3.2-14.4-5.7-22.1-7.4
			c-8.1-1.9-16.5-2.8-25.2-2.8c-62.7,0-113.8,51-113.8,113.8c0,1.1,0,2.1,0,3.2h32.2c-0.1-1.1-0.1-2.1-0.1-3.2
			c0-41.3,30.8-75.5,70.7-80.9l-31.3,68l29.2,1.7l-22.7,46.9l-11.8,24.4l-13.7,28.2l22-23.5l19.4-20.8l28.8-30.9L257.5,481z"/>
		<path class="st1" d="M330.6,481h-32.8h-17.5l-30,32.2H299c-6.3,38.8-40,68.4-80.5,68.4c-6.5,0-12.8-0.8-18.9-2.2v32.8
			c6.1,1,12.5,1.6,18.9,1.6c58.3,0,106.5-44,113-100.6c0.5-4.3,0.8-8.7,0.8-13.2C332.2,493.5,331.6,487.2,330.6,481z"/>
	</g>
</g>
</svg>
